PathFileType	4	(X/Y/Z)	/Users/itak/Documents/Research/Walk-IL/dataset/trc/00393_00012.trc
DataRate	CameraRate	NumFrames	NumMarkers	Units	OrigDataRate	OrigDataStartFrame	OrigNumFrames
100.000000	100.000000	4	53	mm	100.000000	343	550
Frame#	Time	RPSI			LPSI			L3			STRN			T10			C7			CLAV			LBAK			LSHO			LUPA			LAEL			LAOL			LWTS			LWPS			LFRA			LIFD			LHPS			LHTS			RSHO			RUPA			RAEL			RAOL			RWTS			RWPS			RFRA			RIFD			RHTS			RHPS			RBHD			LFHD			RFHD			LBHD			LHIP			RHIP			RASI			LASI			LKNE			LTHI			LANK			LTIP			LTOE			LMT1			LMT5			LHEE			RKNE			RTHI			RANK			RTIP			RTOE			RMT1			RMT5			RHEE			RBAK			
		X1	Y1	Z1	X2	Y2	Z2	X3	Y3	Z3	X4	Y4	Z4	X5	Y5	Z5	X6	Y6	Z6	X7	Y7	Z7	X8	Y8	Z8	X9	Y9	Z9	X10	Y10	Z10	X11	Y11	Z11	X12	Y12	Z12	X13	Y13	Z13	X14	Y14	Z14	X15	Y15	Z15	X16	Y16	Z16	X17	Y17	Z17	X18	Y18	Z18	X19	Y19	Z19	X20	Y20	Z20	X21	Y21	Z21	X22	Y22	Z22	X23	Y23	Z23	X24	Y24	Z24	X25	Y25	Z25	X26	Y26	Z26	X27	Y27	Z27	X28	Y28	Z28	X29	Y29	Z29	X30	Y30	Z30	X31	Y31	Z31	X32	Y32	Z32	X33	Y33	Z33	X34	Y34	Z34	X35	Y35	Z35	X36	Y36	Z36	X37	Y37	Z37	X38	Y38	Z38	X39	Y39	Z39	X40	Y40	Z40	X41	Y41	Z41	X42	Y42	Z42	X43	Y43	Z43	X44	Y44	Z44	X45	Y45	Z45	X46	Y46	Z46	X47	Y47	Z47	X48	Y48	Z48	X49	Y49	Z49	X50	Y50	Z50	X51	Y51	Z51	X52	Y52	Z52	X53	Y53	Z53	

344	3.43	-654.8268432617188	947.0570678710938	-67.43674468994141	-661.2532348632812	949.7328491210938	-199.0852203369141	-648.5119018554688	1033.471069335938	-132.0167236328125	-385.74365234375	1171.011962890625	-132.6954040527344	-641.0250244140625	1135.812622070312	-141.9758605957031	-581.6560668945312	1380.8125	-157.6735992431641	-432.1753540039062	1293.32568359375	-138.9795227050781	-591.2772216796875	1342.003173828125	-262.2207946777344	-498.5960083007812	1351.769653320312	-306.6923828125	-521.74365234375	1231.897827148438	-373.1960754394531	-494.8977966308594	1038.898193359375	-399.2490234375	-551.66162109375	1011.057983398438	-341.7417907714844	-334.5380249023438	893.50830078125	-372.3378601074219	-378.4354858398438	858.2596435546875	-432.1795349121094	-451.2510986328125	955.6957397460938	-412.6135559082031	-242.4819030761719	742.7769775390625	-385.7998657226562	-321.0157165527344	792.71484375	-432.0909423828125	-271.4797668457031	822.2340087890625	-403.3007507324219	-536.3784790039062	1358.921997070312	5.980164051055908	-559.4663696289062	1296.582275390625	64.21800994873047	-584.3140869140625	1039.052124023438	117.6735076904297	-601.10791015625	1024.7919921875	23.96363830566406	-453.8858947753906	826.1429443359375	105.7260437011719	-499.53955078125	814.677978515625	162.7942352294922	-560.3565673828125	973.7868041992188	138.0348358154297	-455.1640625	654.123291015625	102.3942413330078	-437.1160583496094	720.9732055664062	126.4162979125977	-495.7098999023438	724.8248901367188	162.5240173339844	-555.6077270507812	1554.134887695312	-58.93064117431641	-410.5136413574219	1581.8486328125	-191.4476470947266	-426.2048645019531	1579.667114257812	-69.54525756835938	-552.8245239257812	1552.488891601562	-221.1779479980469	-576.6642456054688	941.5572509765625	-315.8243408203125	-568.2291870117188	921.1212158203125	43.80252456665039	-440.7667236328125	929.28466796875	-17.20307922363281	-461.9614562988281	930.7319946289062	-279.3743591308594	-543.0465087890625	442.1661071777344	-275.986083984375	-544.8148193359375	585.6261596679688	-297.4360961914062	-755.4443969726562	46.99126052856445	-232.8796691894531	-648.72509765625	228.5505981445312	-263.4889221191406	-541.7069091796875	42.13943862915039	-172.9814758300781	-621.6486206054688	40.04584121704102	-137.6363983154297	-627.2818603515625	45.31514358520508	-242.0877838134766	-796.8651733398438	43.96114349365234	-177.2740020751953	-351.8415222167969	481.9270324707031	38.35375213623047	-443.7255249023438	725.1337890625	49.4442024230957	-212.5041198730469	67.25276947021484	28.00762939453125	-287.4148559570312	373.8760070800781	32.34442520141602	-40.68690490722656	68.74617004394531	-36.03443908691406	-109.4417114257812	68.83399200439453	-66.04047393798828	-126.1081771850586	55.26953887939453	33.74467849731445	-277.3245544433594	53.01659393310547	-30.57108306884766	-638.4674072265625	1240.119750976562	-88.57596588134766	
345	3.44	-666.2293090820312	949.41943359375	-69.35370635986328	-671.7684936523438	952.1605224609375	-201.0899963378906	-659.6859130859375	1035.80322265625	-133.7268981933594	-396.3560791015625	1173.423095703125	-133.3112487792969	-652.2671508789062	1138.341552734375	-143.2252502441406	-592.1499633789062	1383.213012695312	-158.4765777587891	-442.6068115234375	1295.793823242188	-139.6189270019531	-601.602294921875	1344.414184570312	-263.0870971679688	-508.9282531738281	1354.114379882812	-307.5145263671875	-532.343994140625	1234.27587890625	-373.9974670410156	-506.3995666503906	1040.925903320312	-400.3298034667969	-563.0750732421875	1013.592712402344	-342.3493957519531	-347.6661987304688	893.1104736328125	-374.0013122558594	-392.6871948242188	858.1778564453125	-433.3942565917969	-463.7857360839844	956.890869140625	-413.7984008789062	-257.5223388671875	741.4036254882812	-388.5239562988281	-335.9926147460938	792.136962890625	-433.86328125	-286.0107116699219	821.135498046875	-405.6984558105469	-547.2022705078125	1361.273681640625	5.217375755310059	-570.1981201171875	1298.826782226562	63.44507217407227	-594.7943725585938	1041.100341796875	116.2511749267578	-611.6560668945312	1027.101440429688	22.54725646972656	-464.9017639160156	827.9127807617188	103.7566909790039	-510.5762329101562	816.4515991210938	160.8239440917969	-570.9795532226562	975.7413330078125	136.4749755859375	-466.37548828125	655.8695678710938	100.5050430297852	-448.2596435546875	722.7036743164062	124.465950012207	-506.8760986328125	726.6245727539062	160.5470428466797	-566.10693359375	1556.687133789062	-59.66116714477539	-421.060791015625	1584.196899414062	-192.3096771240234	-436.6937255859375	1582.045288085938	-70.39120483398438	-563.4180908203125	1555.010864257812	-221.9272155761719	-586.1455078125	944.1333618164062	-317.0803833007812	-580.7013549804688	923.3196411132812	42.6103630065918	-452.6265563964844	931.7254028320312	-17.15410423278809	-471.8792724609375	933.384765625	-279.3967895507812	-548.5062255859375	444.5517272949219	-276.31494140625	-551.5709838867188	587.91552734375	-298.0260925292969	-755.4552612304688	46.87896728515625	-232.8961791992188	-651.2810668945312	229.6146087646484	-263.6190185546875	-541.7058715820312	42.059814453125	-173.0189514160156	-621.595458984375	40.11197280883789	-137.6974334716797	-627.3141479492188	45.3697624206543	-242.0805969238281	-796.8135986328125	43.63119125366211	-177.2743225097656	-362.5608215332031	484.7037658691406	38.12925338745117	-455.8230895996094	727.5343017578125	49.19417190551758	-230.7919006347656	67.43422698974609	29.13529586791992	-299.9142150878906	375.5231018066406	32.71120452880859	-58.4482536315918	71.118896484375	-31.70585060119629	-126.5476379394531	69.95967864990234	-63.05851745605469	-144.6021118164062	55.94182586669922	36.51291275024414	-295.3456420898438	53.30364608764648	-29.89919090270996	-649.1734619140625	1242.584106445312	-89.50080108642578	
346	3.45	-677.3820190429688	952.1210327148438	-71.22730255126953	-681.9413452148438	954.8338012695312	-203.0431518554688	-670.385986328125	1038.586059570312	-135.3126525878906	-406.816650390625	1176.353393554688	-133.6605987548828	-663.1204223632812	1141.20166015625	-144.4409332275391	-602.5633544921875	1386.002319335938	-159.1488647460938	-452.9552001953125	1298.752807617188	-140.0482330322266	-611.7699584960938	1347.2421875	-263.7997131347656	-519.1083984375	1356.921264648438	-308.1267700195312	-542.7306518554688	1237.199951171875	-374.6588439941406	-517.8598022460938	1043.481689453125	-401.2609252929688	-574.4248657226562	1016.743530273438	-342.7888488769531	-361.1798400878906	892.7195434570312	-375.564453125	-407.3996276855469	858.2659912109375	-434.4480895996094	-476.4999389648438	958.4805908203125	-414.8331909179688	-273.4501037597656	739.748291015625	-391.0400390625	-351.7196350097656	791.53759765625	-435.4632568359375	-301.2108764648438	819.81298828125	-407.9480590820312	-557.9793090820312	1364.117065429688	4.578210830688477	-580.8731689453125	1301.60107421875	62.81735229492188	-605.0310668945312	1043.680297851562	114.8633270263672	-622.0150756835938	1029.991088867188	21.18142509460449	-475.8016662597656	830.1019897460938	101.8738708496094	-521.525146484375	818.6710205078125	158.9066162109375	-581.4130249023438	978.2084350585938	134.9470672607422	-477.5801391601562	658.023193359375	98.70809173583984	-459.362548828125	724.8357543945312	122.6097717285156	-517.9864501953125	728.8673095703125	158.6356658935547	-576.5574951171875	1559.615844726562	-60.3158073425293	-431.5953674316406	1586.906005859375	-193.1456451416016	-447.1358337402344	1584.8642578125	-71.21121978759766	-573.9786376953125	1557.814208984375	-222.6062622070312	-595.1885986328125	946.9002685546875	-318.185791015625	-592.9754638671875	926.0286865234375	41.49435043334961	-464.246826171875	934.7254028320312	-16.96604347229004	-481.4026489257812	936.3189697265625	-279.2794799804688	-554.0712280273438	447.1307678222656	-276.5856628417969	-558.2735595703125	590.386474609375	-298.4657287597656	-755.4243774414062	46.91050338745117	-232.9804382324219	-653.9265747070312	230.9166259765625	-263.7685546875	-541.7059326171875	42.03348541259766	-172.9447326660156	-621.524169921875	40.25390243530273	-137.8133087158203	-627.3182983398438	45.43330001831055	-242.1295318603516	-796.7052612304688	43.56227111816406	-177.3385314941406	-373.0456848144531	487.9010314941406	37.5875129699707	-467.4266052246094	730.3988037109375	48.87678146362305	-251.4692077636719	67.42017364501953	29.98908615112305	-312.8375244140625	377.1748046875	32.76520919799805	-78.58576202392578	72.59754180908203	-27.70240592956543	-146.1020050048828	70.35964965820312	-60.35967636108398	-165.5508422851562	56.25275039672852	38.96171188354492	-316.4212036132812	53.94818115234375	-28.8432559967041	-659.8135375976562	1245.490234375	-90.25616455078125	
347	3.46	-688.287841796875	955.1025390625	-73.06314086914062	-691.794921875	957.6487426757812	-204.9413146972656	-680.6408081054688	1041.712524414062	-136.8066558837891	-417.113525390625	1179.723266601562	-133.7418365478516	-673.5608520507812	1144.299560546875	-145.6133575439453	-612.8997802734375	1389.098876953125	-159.7012329101562	-463.2327270507812	1302.116821289062	-140.2678375244141	-621.7950439453125	1350.40673828125	-264.3668823242188	-529.1307373046875	1360.110961914062	-308.5255737304688	-552.8905029296875	1240.592895507812	-375.1911315917969	-529.2662963867188	1046.52001953125	-402.0382690429688	-585.7142333984375	1020.442932128906	-343.0849304199219	-375.0746154785156	892.3244018554688	-377.031005859375	-422.5159301757812	858.5340576171875	-435.3544006347656	-489.3616027832031	960.4336547851562	-415.7271118164062	-290.2601013183594	737.8267211914062	-393.2840576171875	-368.1679382324219	790.9301147460938	-436.8746948242188	-317.0341186523438	818.2731323242188	-409.99658203125	-568.7173461914062	1367.365234375	4.049851894378662	-591.4983520507812	1304.83203125	62.32928085327148	-615.0621948242188	1046.736083984375	113.5440826416016	-632.2302856445312	1033.390258789062	19.90583229064941	-486.5626831054688	832.6640625	100.0841827392578	-532.332275390625	821.2881469726562	157.0686950683594	-591.6728515625	981.13134765625	133.4819030761719	-488.7946166992188	660.5391235351562	96.92062377929688	-470.4241638183594	727.3050537109375	120.7861785888672	-529.0164184570312	731.5018310546875	156.7796936035156	-586.9645385742188	1562.832885742188	-60.90280151367188	-442.1203308105469	1589.883544921875	-193.9604797363281	-457.5331420898438	1588.036499023438	-72.00897979736328	-584.5094604492188	1560.79541015625	-223.2182769775391	-603.8919677734375	949.7278442382812	-319.1752624511719	-605.005126953125	929.2338256835938	40.4267578125	-475.6118469238281	938.2195434570312	-16.71263885498047	-490.5977478027344	939.4246826171875	-279.0938110351562	-559.8524780273438	449.7966918945312	-276.8435363769531	-565.035400390625	592.9302978515625	-298.7910766601562	-755.3907470703125	47.00202560424805	-233.1007232666016	-656.7257080078125	232.3343200683594	-263.9249572753906	-541.7125854492188	42.05998229980469	-172.8086853027344	-621.4590454101562	40.42936706542969	-137.964599609375	-627.3199462890625	45.50044250488281	-242.2206115722656	-796.5653686523438	43.61574554443359	-177.4240875244141	-383.4165649414062	491.3954467773438	36.84704971313477	-478.5791015625	733.674072265625	48.51197814941406	-274.3455200195312	67.30107116699219	30.49906349182129	-326.2401733398438	378.8016662597656	32.59819793701172	-100.9685516357422	73.19654083251953	-24.25251007080078	-167.9926452636719	70.15236663818359	-58.11977386474609	-188.7580718994141	56.18475723266602	40.93672180175781	-340.1927185058594	54.97498321533203	-27.69405746459961	-670.3974609375	1248.749633789062	-90.86692810058594	
